HIERARCHY
ROOT Hips
{
	OFFSET 0.000000 0.000000 0.000000 
	CHANNELS 6 Xposition Yposition Zposition Zrotation Yrotation Xrotation
	JOINT LeftUpLeg
	{
		OFFSET 1.363060 -1.794630 0.839290 
		CHANNELS 3 Zrotation Yrotation Xrotation
		JOINT LeftLeg
		{
			OFFSET 2.448110 -6.726130 0.000000 
			CHANNELS 3 Zrotation Yrotation Xrotation
			JOINT LeftFoot
			{
				OFFSET 2.562200 -7.039590 0.000000 
				CHANNELS 3 Zrotation Yrotation Xrotation
				JOINT LeftToeBase
				{
					OFFSET 0.157640 -0.433110 2.322550 
					CHANNELS 3 Zrotation Yrotation Xrotation
					End Site
					{
						OFFSET 0.000000 0.000000 0.000000 
					}
				}
			}
		}
	}
	JOINT RightUpLeg
	{
		OFFSET -1.305520 -1.794630 0.839290 
		CHANNELS 3 Zrotation Yrotation Xrotation
		JOINT RightLeg
		{
			OFFSET -2.542530 -6.985550 0.000000 
			CHANNELS 3 Zrotation Yrotation Xrotation
			JOINT RightFoot
			{
				OFFSET -2.568260 -7.056230 0.000000 
				CHANNELS 3 Zrotation Yrotation Xrotation
				JOINT RightToeBase
				{
					OFFSET -0.164730 -0.452590 2.363150 
					CHANNELS 3 Zrotation Yrotation Xrotation
					End Site
					{
						OFFSET 0.000000 0.000000 0.000000 
					}
				}
			}
		}
	}
	JOINT Spine
	{
		OFFSET 0.028270 2.035590 -0.193380 
		CHANNELS 3 Zrotation Yrotation Xrotation
		JOINT Spine1
		{
			OFFSET 0.056720 2.048850 -0.042750 
			CHANNELS 3 Zrotation Yrotation Xrotation
			JOINT Neck1
			{
				OFFSET -0.054170 1.746240 0.172020 
				CHANNELS 3 Zrotation Yrotation Xrotation
				JOINT Head
				{
					OFFSET 0.104070 1.761360 -0.123970 
					CHANNELS 3 Zrotation Yrotation Xrotation
					End Site
					{
						OFFSET 0.000000 0.000000 0.000000 
					}
				}
			}
			JOINT LeftArm
			{
				OFFSET 3.362410 1.200890 -0.311210 
				CHANNELS 3 Zrotation Yrotation Xrotation
				JOINT LeftForeArm
				{
					OFFSET 4.983000 -0.000000 -0.000000 
					CHANNELS 3 Zrotation Yrotation Xrotation
					JOINT LeftHand
					{
						OFFSET 3.483560 -0.000000 -0.000000 
						CHANNELS 3 Zrotation Yrotation Xrotation
						JOINT LeftHandIndex1
						{
							OFFSET 0.715260 -0.000000 -0.000000 
							CHANNELS 3 Zrotation Yrotation Xrotation
							End Site
							{
								OFFSET 0.000000 0.000000 0.000000 
							}
						}
					}
				}
			}
			JOINT RightArm
			{
				OFFSET -3.136600 1.374050 -0.404650 
				CHANNELS 3 Zrotation Yrotation Xrotation
				JOINT RightForeArm
				{
					OFFSET -5.241900 -0.000000 -0.000000 
					CHANNELS 3 Zrotation Yrotation Xrotation
					JOINT RightHand
					{
						OFFSET -3.444170 -0.000000 -0.000000 
						CHANNELS 3 Zrotation Yrotation Xrotation
						JOINT RightHandIndex1
						{
							OFFSET -0.622530 -0.000000 -0.000000 
							CHANNELS 3 Zrotation Yrotation Xrotation
							End Site
							{
								OFFSET 0.000000 0.000000 0.000000 
							}
						}
					}
				}
			}
		}
	}
}
MOTION
Frames: 18
Frame Time: 0.041667
10.819585 17.895170 6.215850 -0.852765 -7.139130 24.494032 -23.977964 -15.035260 -14.042604 -1.163142 2.926637 7.005239 0.756114 -1.958332 -17.200868 2.669000 -10.138900 -29.427700 31.296693 16.584471 -15.530797 0.761351 -2.730709 5.993612 -0.336258 6.071633 -14.825376 -1.712600 8.239900 -23.445000 1.724182 -1.912544 -6.074576 -0.932258 -1.383962 13.286728 13.566842 -13.362784 2.390955 2.985500 -6.718100 -1.583200 -105.320512 -4.760879 -7.075136 8.968416 -9.491993 -0.796007 -2.155719 2.870285 25.146830 -7.125000 0.000000 0.000000 98.455338 1.936030 6.122494 -10.319052 19.115273 -2.347099 1.763425 3.324033 10.932492 7.125000 0.000000 0.000000 
10.825803 17.890915 6.229378 -0.804548 -6.924934 24.514473 -24.073699 -15.132032 -13.990967 -1.157445 2.929503 7.000868 0.733740 -2.101447 -17.172119 2.751900 -10.282100 -29.895300 31.347567 16.036181 -15.395087 0.754297 -2.611500 5.766304 -0.328583 6.292984 -14.792861 -1.430000 7.561200 -21.389000 1.738177 -1.968195 -5.852276 -1.111837 -1.401653 13.327356 13.440041 -13.463835 2.636401 2.890300 -6.749800 -1.441400 -105.251968 -4.784736 -6.518596 9.074181 -9.624316 -0.816483 -2.199915 2.812486 24.126261 -7.125000 0.000000 0.000000 98.360569 2.187091 5.928403 -10.130079 18.839552 -2.276614 1.765193 3.294913 10.977989 7.125000 0.000000 0.000000 
10.828749 17.890042 6.231997 -0.748305 -6.781788 24.470033 -24.144813 -15.258734 -13.945157 -1.154001 2.945610 7.039225 0.727284 -2.166967 -17.199912 2.837000 -10.426400 -30.368700 31.303307 15.845849 -15.364138 0.754012 -2.607980 5.794863 -0.359051 6.434559 -15.142866 -0.787900 5.666500 -15.819900 1.714632 -1.968112 -5.857175 -1.167837 -1.395462 13.274060 13.495529 -13.531839 2.703511 2.915000 -6.780500 -1.404100 -105.132501 -4.638452 -5.486605 9.205909 -9.780018 -0.841455 -2.259806 2.770220 22.691298 -7.125000 0.000000 0.000000 98.325817 2.241989 5.498644 -9.994999 18.630932 -2.222490 1.758179 3.252586 11.203023 7.125000 0.000000 0.000000 
10.829077 17.890915 6.228615 -0.756456 -6.692334 24.386422 -24.136812 -15.314860 -13.916642 -1.150387 2.961012 7.092475 0.723999 -2.197980 -17.203556 2.874800 -10.489500 -30.576900 31.327453 15.898882 -15.320233 0.757689 -2.639399 5.890530 -0.358043 6.166207 -14.996129 -1.650300 8.096300 -23.006900 1.678661 -1.947682 -6.067904 -1.138079 -1.386720 13.250120 13.447262 -13.635436 2.823853 2.900700 -6.825600 -1.362700 -105.047049 -4.347633 -4.486810 9.378288 -10.016375 -0.876610 -2.316389 2.756991 21.346718 -7.125000 0.000000 0.000000 98.289982 2.097544 5.331321 -9.971678 18.601121 -2.211905 1.749600 3.243772 11.244577 7.125000 0.000000 0.000000 
10.828313 17.890261 6.229488 -0.815208 -6.622058 24.372239 -24.049605 -15.328842 -13.913174 -1.148280 2.958460 7.088393 0.714888 -2.265023 -17.202742 2.785300 -10.339200 -30.082200 31.461049 15.701517 -15.258602 0.755296 -2.595906 5.807212 -0.343791 6.208772 -14.850314 -1.984300 8.833400 -25.275500 1.678534 -1.963312 -6.062455 -1.186322 -1.398079 13.256424 13.054920 -13.736724 3.261226 2.671100 -6.848700 -1.193200 -104.957127 -4.245253 -4.062764 9.538784 -10.259811 -0.914382 -2.341027 2.709024 20.739184 -7.125000 0.000000 0.000000 98.292459 2.112752 5.189033 -9.964321 18.604548 -2.211545 1.750195 3.256410 11.454719 7.125000 0.000000 0.000000 
10.827222 17.889279 6.231342 -0.847157 -6.573052 24.379661 -24.003506 -15.264044 -13.916673 -1.144501 2.939012 7.046099 0.694862 -2.384095 -17.155427 2.715800 -10.220100 -29.692500 31.533917 15.506832 -15.243878 0.749281 -2.554602 5.716070 -0.325901 6.363894 -14.732331 -1.873200 8.596800 -24.541800 1.674754 -1.956236 -6.047254 -1.199078 -1.382797 13.316118 13.396195 -13.580061 2.861110 2.875000 -6.797900 -1.377500 -104.841542 -4.307716 -4.101580 9.645262 -10.438118 -0.937716 -2.340037 2.586282 20.622622 -7.125000 0.000000 0.000000 98.339548 2.157354 4.880128 -9.951243 18.581374 -2.207965 1.752216 3.264098 11.810368 7.125000 0.000000 0.000000 
10.827004 17.888842 6.230579 -0.847099 -6.513185 24.387210 -24.011069 -15.191325 -13.955982 -1.137544 2.952186 7.081151 0.673547 -2.462652 -17.042374 2.799400 -10.363000 -30.160300 31.536996 15.502382 -15.224911 0.749177 -2.539672 5.680263 -0.324200 6.385584 -14.723286 -1.756700 8.339900 -23.751200 1.672223 -1.972807 -6.039983 -1.222364 -1.385846 13.333772 13.596436 -13.378224 2.801686 2.941100 -6.707800 -1.407300 -104.762743 -4.336436 -4.177318 9.736673 -10.594756 -0.959349 -2.354659 2.534421 20.446547 -7.125000 0.000000 0.000000 98.382380 2.225820 4.526035 -9.927558 18.538199 -2.198250 1.751870 3.250438 12.079918 7.125000 0.000000 0.000000 
10.826567 17.888188 6.230251 -0.842730 -6.411482 24.362860 -24.032304 -15.196734 -13.940891 -1.133287 2.965351 7.117768 0.663143 -2.480078 -16.954707 2.857700 -10.461000 -30.482900 31.561387 15.421562 -15.185646 0.748477 -2.537821 5.695445 -0.334109 6.460659 -14.847717 -1.450400 7.612900 -21.544200 1.666265 -1.983649 -5.998973 -1.251315 -1.387578 13.461042 13.794612 -13.258651 2.583688 3.048300 -6.662300 -1.485700 -104.696080 -4.495072 -4.237857 9.802335 -10.716578 -0.977658 -2.392614 2.588976 20.240990 -7.125000 0.000000 0.000000 98.421440 2.413506 4.289344 -9.914913 18.513063 -2.193879 1.760209 3.225878 12.190817 7.125000 0.000000 0.000000 
10.823512 17.890806 6.224032 -0.775853 -6.337839 24.309644 -24.079814 -15.188040 -13.976851 -1.126734 2.989692 7.170846 0.645543 -2.601563 -16.949824 2.861200 -10.466900 -30.502200 31.497434 15.374369 -15.198910 0.748967 -2.562082 5.772235 -0.360702 6.535238 -15.140051 -0.749100 5.528300 -15.421700 1.661690 -2.008284 -5.983933 -1.224281 -1.413278 13.462806 13.572787 -13.375802 2.926722 2.892100 -6.695600 -1.297300 -104.657988 -4.587837 -4.213560 9.865000 -10.819966 -0.996105 -2.418950 2.619883 19.979830 -7.125000 0.000000 0.000000 98.437241 2.539362 4.139908 -9.925862 18.532252 -2.199815 1.779637 3.223542 12.246257 7.125000 0.000000 0.000000 
10.820130 17.894079 6.217813 -0.765358 -6.280315 24.330502 -24.031391 -15.179948 -14.102925 -1.120728 3.024707 7.239851 0.628789 -2.724384 -16.966636 2.882300 -10.502000 -30.618100 31.486357 15.444887 -15.262870 0.753012 -2.577871 5.790719 -0.363232 6.416432 -15.124202 -0.877400 5.971600 -16.701900 1.675766 -2.045524 -6.031183 -1.149355 -1.436156 13.248355 13.341543 -13.535810 3.275963 2.750400 -6.752500 -1.137300 -104.662917 -4.437258 -4.006464 9.951717 -10.945465 -1.017473 -2.443962 2.583901 19.511978 -7.125000 0.000000 0.000000 98.409468 2.499710 3.861747 -9.884199 18.464431 -2.183971 1.793163 3.227925 12.495790 7.125000 0.000000 0.000000 
10.819148 17.893316 6.219450 -0.763383 -6.221273 24.391905 -24.014814 -15.260300 -14.141116 -1.120379 3.018065 7.210655 0.619910 -2.754608 -16.924483 2.760700 -10.297300 -29.944900 31.483013 15.485933 -15.310736 0.753279 -2.582010 5.778907 -0.340648 6.248896 -14.831632 -1.496900 7.728500 -21.892500 1.679881 -2.032973 -6.078807 -1.081368 -1.405002 13.030956 13.753203 -13.266357 2.583842 3.063800 -6.669200 -1.537800 -104.653911 -4.284126 -3.755486 10.063797 -11.116342 -1.042136 -2.484463 2.516962 18.875779 -7.125000 0.000000 0.000000 98.383002 2.390706 3.594905 -9.800212 18.313959 -2.151112 1.793482 3.220147 12.739958 7.125000 0.000000 0.000000 
10.818493 17.892225 6.221087 -0.690379 -6.196721 24.410649 -24.081595 -15.355532 -14.144567 -1.120020 3.006232 7.162913 0.608827 -2.791842 -16.868901 2.519500 -9.873300 -28.567300 31.400280 15.327948 -15.434008 0.744055 -2.635051 5.915576 -0.338554 6.387413 -14.884152 -1.477800 7.681100 -21.749500 1.673122 -2.042059 -6.078760 -1.063551 -1.411388 13.045749 13.844321 -13.200238 2.664818 3.091700 -6.634000 -1.496500 -104.619723 -4.343814 -3.710698 10.138807 -11.236694 -1.060921 -2.523343 2.506571 18.431421 -7.125000 0.000000 0.000000 98.356772 2.436523 3.640470 -9.777851 18.280924 -2.143402 1.790234 3.226868 12.679844 7.125000 0.000000 0.000000 
10.816639 17.891243 6.222396 -0.673235 -6.147490 24.402966 -24.076702 -15.329668 -14.169823 -1.115876 3.010011 7.167626 0.592693 -2.870257 -16.815386 2.443700 -9.734700 -28.121900 31.406337 15.119953 -15.498761 0.737975 -2.659032 5.992755 -0.358362 6.681501 -15.215034 -0.765900 5.588700 -15.595500 1.677852 -2.055749 -6.055127 -1.042734 -1.424895 13.157806 13.904117 -13.240818 2.911179 3.095100 -6.637600 -1.345300 -104.580364 -4.482521 -3.630353 10.169925 -11.288082 -1.071101 -2.546829 2.549119 18.217036 -7.125000 0.000000 0.000000 98.303174 2.529700 3.965746 -9.820753 18.357864 -2.162784 1.780930 3.253616 12.286198 7.125000 0.000000 0.000000 
10.813256 17.891461 6.223159 -0.693225 -6.084675 24.364096 -24.039217 -15.212445 -14.192953 -1.106533 3.025061 7.218043 0.565722 -3.040968 -16.776655 2.525500 -9.884200 -28.602500 31.465902 15.178124 -15.362098 0.746176 -2.612868 5.893111 -0.353992 6.415956 -15.027492 -1.236200 7.050600 -19.865200 1.681449 -2.061940 -6.051713 -1.020808 -1.438183 13.143144 13.658412 -13.359643 3.327897 2.940900 -6.668900 -1.157300 -104.522708 -4.504171 -3.258907 10.240134 -11.383066 -1.091193 -2.559329 2.537841 17.767390 -7.125000 0.000000 0.000000 98.266118 2.506230 4.224642 -9.878332 18.455442 -2.184813 1.751887 3.270184 11.863392 7.125000 0.000000 0.000000 
10.809874 17.893206 6.221523 -0.742699 -6.033382 24.379493 -23.936612 -15.176416 -14.256395 -1.102740 3.040942 7.258025 0.555653 -3.119947 -16.789330 2.619300 -10.051700 -29.144400 31.499303 15.358179 -15.333078 0.755061 -2.607397 5.863183 -0.379108 6.402933 -15.279115 -0.702000 5.355500 -14.925200 1.684358 -2.046943 -6.086892 -0.978184 -1.423242 12.953370 13.783576 -13.381610 3.214919 3.029200 -6.688000 -1.209200 -104.477664 -4.391968 -2.549517 10.370514 -11.555414 -1.123307 -2.584373 2.447260 16.605773 -7.125000 0.000000 0.000000 98.255609 2.338305 4.323394 -9.948643 18.561125 -2.210635 1.725159 3.274934 11.714645 7.125000 0.000000 0.000000 
10.810092 17.894079 6.220541 -0.827451 -5.976941 24.425213 -23.806431 -15.234172 -14.301068 -1.107242 3.037333 7.238223 0.566044 -3.022127 -16.762375 2.600700 -10.018800 -29.037600 31.602390 15.352337 -15.400995 0.753827 -2.633733 5.911043 -0.363504 6.359100 -15.120042 -1.185300 6.909100 -19.446300 1.690531 -2.048767 -6.128525 -1.000161 -1.414878 12.764285 13.706408 -13.462846 3.339605 3.003300 -6.722700 -1.186200 -104.450042 -4.249337 -1.850809 10.472479 -11.680813 -1.148367 -2.614020 2.389747 15.274361 -7.125000 0.000000 0.000000 98.249477 2.189266 4.454730 -10.000905 18.648592 -2.233296 1.727155 3.281963 11.683203 7.125000 0.000000 0.000000 
10.810747 17.894843 6.218250 -0.840169 -5.937109 24.420401 -23.776335 -15.247238 -14.324677 -1.106266 3.040963 7.240584 0.560678 -3.017822 -16.702707 2.528800 -9.890100 -28.621500 31.617182 15.305121 -15.421080 0.755253 -2.643045 5.939454 -0.382397 6.439964 -15.342860 -0.930300 6.144300 -17.203800 1.689371 -2.067434 -6.138007 -1.037350 -1.429339 12.701650 13.483802 -13.582597 3.775952 2.853300 -6.754600 -0.988000 -104.396901 -4.301278 -1.878971 10.484790 -11.701656 -1.154510 -2.624610 2.437457 15.043882 -7.125000 0.000000 0.000000 98.249078 2.240630 4.536307 -9.984729 18.630261 -2.228129 1.746194 3.258526 11.682509 7.125000 0.000000 0.000000 
10.807910 17.897898 6.209412 -0.762349 -5.948922 24.383369 -23.826676 -15.260986 -14.385838 -1.101315 3.081609 7.331420 0.553441 -3.065514 -16.706261 2.530500 -9.893100 -28.631400 31.504789 15.540001 -15.396449 0.763906 -2.662203 5.974361 -0.386354 6.079913 -15.224601 -1.215700 6.994000 -19.697700 1.688563 -2.087101 -6.129838 -0.956198 -1.447122 12.671975 13.526206 -13.583601 3.803302 2.867900 -6.752000 -0.948100 -104.379948 -4.450220 -2.303169 10.538939 -11.815575 -1.173519 -2.648966 2.488474 15.619533 -7.125000 0.000000 0.000000 98.213627 2.479401 4.445556 -9.895069 18.473865 -2.190646 1.760399 3.216860 11.857258 7.125000 0.000000 0.000000 
